<svg width="4007" height="494" viewBox="0 0 4007 494" fill="none" xmlns="http://www.w3.org/2000/svg">
<g filter="url(#filter0_d_131_45)">
<path d="M2540.76 263.737V28.4554H2561.27L2668.82 211.975H2658.07L2764.62 28.4554H2785.12V263.737H2761.26V65.7644H2766.97L2668.82 233.823H2657.06L2558.24 65.7644H2564.63V263.737H2540.76Z" fill="url(#paint0_linear_131_45)"/>
<path d="M2861.78 263.737V65.7644C2861.78 65.7644 2864.92 73.1179 2873.89 73.1837C2882.86 73.2496 2886.65 65.7644 2886.65 65.7644V263.737H2861.78Z" fill="url(#paint1_linear_131_45)"/>
<path d="M2963.21 263.737V28.4554H2988.08V242.226H3119.84V263.737H2963.21Z" fill="url(#paint2_linear_131_45)"/>
<path d="M3333.23 28.4554H3357.76V263.737H3333.23V28.4554ZM3186.01 263.737H3161.13V28.4554H3186.01V263.737ZM3335.58 155.171H3183.32V133.324H3335.58V155.171Z" fill="url(#paint3_linear_131_45)"/>
<path d="M3396.91 263.737L3504.47 28.4554H3529.01L3636.56 263.737H3610.35L3511.53 42.9084H3521.61L3422.79 263.737H3396.91Z" fill="url(#paint4_linear_131_45)"/>
<path d="M2523.87 297L2338.09 22.4248H0V0L2338.09 3.56023e-05L2523.87 275.825H3619.68C3619.68 275.825 3637.16 276.302 3648.35 275.825C3658.1 275.408 3663.54 274.595 3673.27 273.831C3683.39 273.037 3689.31 272.964 3699.18 271.838C3714.62 270.078 3723.44 270.138 3738.05 264.861C3746.14 261.94 3752.26 259.696 3759.98 255.891C3766.64 252.609 3769.6 250.596 3774.93 245.426C3782.73 237.859 3784.02 232.583 3785.4 219.646C3786.73 207.102 3784.05 193.653 3778.67 188.051C3773.52 182.449 3766.68 178.079 3758.17 174.942C3749.65 171.581 3740.24 168.668 3729.94 166.203C3719.63 163.739 3709.32 161.162 3699.01 158.473C3688.71 155.56 3679.18 151.75 3670.44 147.045C3661.93 142.339 3654.98 136.177 3649.6 128.558C3644.45 120.716 3641.87 110.52 3641.87 97.9718C3641.87 86.3197 3644.82 66.937 3650.87 57.3016C3657.14 47.4422 3666.66 39.5994 3679.44 33.7734C3692.21 27.7233 3708.57 24.6982 3728.51 24.6982C3741.73 24.6982 3754.84 26.6029 3767.83 30.4122C3780.83 33.9975 3792.04 39.0392 3801.45 45.5375L3793.04 65.3684C3782.96 58.6461 3772.2 53.7163 3760.78 50.5793C3749.57 47.4422 3738.7 45.8736 3728.17 45.8736C3714.06 45.8736 3702.4 47.7783 3693.22 51.5876C3684.03 55.3969 3677.2 60.5508 3672.71 67.049C3668.46 73.3232 3666.41 89.2327 3666.41 97.2995C3666.41 106.487 3668.99 113.881 3674.14 119.483C3679.52 125.085 3686.46 129.455 3694.98 132.592C3703.72 135.729 3713.24 138.53 3723.55 140.995C3733.86 143.46 3744.05 146.148 3754.14 149.061C3764.44 151.975 3773.85 155.784 3782.37 160.489C3791.11 164.971 3798.06 171.021 3803.21 178.64C3808.59 186.258 3809.93 205.641 3809.93 217.965C3809.93 229.393 3806.23 242.537 3796.85 254.396C3791.08 261.706 3786.49 264.774 3778.67 269.845C3771.2 274.69 3765.21 277.405 3756.99 280.808C3743.21 286.506 3736.31 288.325 3721.61 290.775C3710.25 292.665 3703.19 292.986 3691.71 293.765C3680.22 294.543 3673.79 294.555 3662.3 295.26C3645.47 296.292 3619.68 297 3619.68 297H2523.87Z" fill="url(#paint5_linear_131_45)"/>
<path d="M2886.15 41.0309C2886.15 47.9114 2880.58 53.4892 2873.7 53.4892C2866.82 53.4892 2861.24 47.9114 2861.24 41.0309C2861.24 34.1504 2866.82 28.5726 2873.7 28.5726C2880.58 28.5726 2886.15 34.1504 2886.15 41.0309Z" fill="url(#paint6_linear_131_45)"/>
<path d="M3528.1 181.56C3528.1 188.44 3522.52 194.018 3515.64 194.018C3508.76 194.018 3503.18 188.44 3503.18 181.56C3503.18 174.679 3508.76 169.102 3515.64 169.102C3522.52 169.102 3528.1 174.679 3528.1 181.56Z" fill="url(#paint7_linear_131_45)"/>
<path d="M83.0327 278.534V63.8644H0V42.2623H191.043V63.8644H108.01V278.534H83.0327Z" fill="url(#paint8_linear_131_45)"/>
<path d="M321.515 280.56C291.362 280.56 267.622 271.896 250.295 254.57C232.969 237.243 224.306 211.591 224.306 177.613V42.2623H249.283V176.6C249.283 204.503 255.583 225.092 268.185 238.368C280.786 251.645 298.562 258.283 321.515 258.283C344.692 258.283 362.581 251.645 375.182 238.368C387.783 225.092 394.084 204.503 394.084 176.6V42.2623H418.386V177.613C418.386 211.591 409.723 237.243 392.396 254.57C375.295 271.896 351.667 280.56 321.515 280.56Z" fill="url(#paint9_linear_131_45)"/>
<path d="M493.653 278.534V42.2623H582.086C602.113 42.2623 619.327 45.5252 633.729 52.0509C648.13 58.3515 659.156 67.5772 666.807 79.7283C674.682 91.6545 678.62 106.168 678.62 123.27C678.62 139.921 674.682 154.323 666.807 166.474C659.156 178.4 648.13 187.626 633.729 194.152C619.327 200.452 602.113 203.602 582.086 203.602H507.492L518.63 192.126V278.534H493.653ZM654.993 278.534L594.237 192.802H621.24L682.333 278.534H654.993ZM518.63 194.152L507.492 182.338H581.411C605.038 182.338 622.928 177.163 635.079 166.812C647.455 156.461 653.643 141.947 653.643 123.27C653.643 104.368 647.455 89.7418 635.079 79.3908C622.928 69.0399 605.038 63.8644 581.411 63.8644H507.492L518.63 52.0509V194.152Z" fill="url(#paint10_linear_131_45)"/>
<path d="M737.572 278.534V42.2623H839.507C865.834 42.2623 886.199 47.5503 900.6 58.1263C915.226 68.7023 922.54 83.6662 922.54 103.018C922.54 115.844 919.502 126.645 913.426 135.421C907.576 144.197 899.475 150.835 889.124 155.335C878.998 159.836 867.859 162.086 855.708 162.086L861.446 153.985C876.523 153.985 889.462 156.348 900.263 161.073C911.289 165.574 919.839 172.437 925.915 181.663C931.991 190.664 935.028 201.915 935.028 215.416C935.028 235.443 927.603 250.969 912.751 261.996C898.125 273.022 875.96 278.534 846.258 278.534H737.572ZM762.55 257.945H845.92C866.622 257.945 882.486 254.457 893.512 247.482C904.538 240.281 910.051 228.917 910.051 213.391C910.051 198.09 904.538 186.951 893.512 179.975C882.486 172.775 866.622 169.174 845.92 169.174H759.849V148.585H837.819C856.721 148.585 871.347 144.984 881.698 137.784C892.274 130.583 897.562 119.895 897.562 105.718C897.562 91.317 892.274 80.6284 881.698 73.6527C871.347 66.4521 856.721 62.8517 837.819 62.8517H762.55V257.945Z" fill="url(#paint11_linear_131_45)"/>
<path d="M1093.89 278.534V42.2623H1114.48L1277.51 247.482H1266.71V42.2623H1291.35V278.534H1270.76L1108.07 73.3152H1118.87V278.534H1093.89Z" fill="url(#paint12_linear_131_45)"/>
<path d="M1610.41 278.534V42.2623H1631L1794.02 247.482H1783.22V42.2623H1807.86V278.534H1787.27L1624.58 73.3152H1635.39V278.534H1610.41Z" fill="url(#paint13_linear_131_45)"/>
<path d="M1884.98 278.534V42.2623H1981.18C2006.38 42.2623 2028.43 47.3253 2047.33 57.4513C2066.46 67.3522 2081.31 81.1911 2091.89 98.9678C2102.46 116.744 2107.75 137.221 2107.75 160.398C2107.75 183.576 2102.46 204.053 2091.89 221.829C2081.31 239.606 2066.46 253.557 2047.33 263.683C2028.43 273.584 2006.38 278.534 1981.18 278.534H1884.98ZM1909.96 256.932H1979.83C2000.76 256.932 2018.87 252.882 2034.17 244.781C2049.7 236.456 2061.74 225.092 2070.29 210.691C2078.84 196.064 2083.11 179.3 2083.11 160.398C2083.11 141.272 2078.84 124.508 2070.29 110.106C2061.74 95.7049 2049.7 84.4538 2034.17 76.353C2018.87 68.0273 2000.76 63.8644 1979.83 63.8644H1909.96V256.932Z" fill="url(#paint14_linear_131_45)"/>
<path d="M2267.13 280.56C2249.35 280.56 2232.81 277.634 2217.51 271.784C2202.43 265.708 2189.27 257.27 2178.02 246.469C2166.99 235.443 2158.33 222.729 2152.03 208.328C2145.95 193.701 2142.91 177.725 2142.91 160.398C2142.91 143.072 2145.95 127.208 2152.03 112.806C2158.33 98.18 2166.99 85.4664 2178.02 74.6654C2189.27 63.6394 2202.43 55.2011 2217.51 49.3506C2232.58 43.275 2249.12 40.2372 2267.13 40.2372C2284.9 40.2372 2301.33 43.275 2316.41 49.3506C2331.48 55.2011 2344.53 63.5269 2355.56 74.3279C2366.81 85.1289 2375.47 97.8425 2381.55 112.469C2387.85 127.095 2391 143.072 2391 160.398C2391 177.725 2387.85 193.701 2381.55 208.328C2375.47 222.954 2366.81 235.668 2355.56 246.469C2344.53 257.27 2331.48 265.708 2316.41 271.784C2301.33 277.634 2284.9 280.56 2267.13 280.56ZM2267.13 258.283C2281.3 258.283 2294.35 255.92 2306.28 251.194C2318.43 246.244 2328.89 239.381 2337.67 230.605C2346.67 221.604 2353.65 211.253 2358.6 199.552C2363.55 187.626 2366.02 174.575 2366.02 160.398C2366.02 146.222 2363.55 133.283 2358.6 121.582C2353.65 109.656 2346.67 99.3052 2337.67 90.5294C2328.89 81.5285 2318.43 74.6654 2306.28 69.94C2294.35 64.9895 2281.3 62.5142 2267.13 62.5142C2252.95 62.5142 2239.79 64.9895 2227.63 69.94C2215.48 74.6654 2204.91 81.5285 2195.91 90.5294C2187.13 99.3052 2180.15 109.656 2174.98 121.582C2170.03 133.283 2167.55 146.222 2167.55 160.398C2167.55 174.35 2170.03 187.288 2174.98 199.214C2180.15 211.141 2187.13 221.604 2195.91 230.605C2204.91 239.381 2215.48 246.244 2227.63 251.194C2239.79 255.92 2252.95 258.283 2267.13 258.283Z" fill="url(#paint15_linear_131_45)"/>
<path d="M985.103 280.56V89.983C985.103 89.983 989.131 99.4183 1000.64 99.5028C1012.15 99.5873 1017.02 89.983 1017.02 89.983V280.56H985.103Z" fill="url(#paint16_linear_131_45)"/>
<path d="M1016.38 58.2476C1016.38 67.076 1009.22 74.2327 1000.39 74.2327C991.563 74.2327 984.406 67.076 984.406 58.2476C984.406 49.4192 991.563 42.2623 1000.39 42.2623C1009.22 42.2623 1016.38 49.4192 1016.38 58.2476Z" fill="url(#paint17_linear_131_45)"/>
<path d="M1466.81 178.071C1466.81 186.9 1459.65 194.056 1450.82 194.056C1442 194.056 1434.84 186.9 1434.84 178.071C1434.84 169.243 1442 162.086 1450.82 162.086C1459.65 162.086 1466.81 169.243 1466.81 178.071Z" fill="url(#paint18_linear_131_45)"/>
<path d="M1330.66 278.534L1438.67 42.2623H1463.31L1571.32 278.534H1545L1450.82 68.0904L1356.65 278.534H1330.66Z" fill="url(#paint19_linear_131_45)"/>
</g>
<defs>
<filter id="filter0_d_131_45" x="0" y="0" width="4006.32" height="493.388" filterUnits="userSpaceOnUse" color-interpolation-filters="sRGB">
<feFlood flood-opacity="0" result="BackgroundImageFix"/>
<feColorMatrix in="SourceAlpha" type="matrix" values="0 0 0 0 0 0 0 0 0 0 0 0 0 0 0 0 0 0 127 0" result="hardAlpha"/>
<feOffset dx="98.1941" dy="98.1941"/>
<feGaussianBlur stdDeviation="49.0971"/>
<feComposite in2="hardAlpha" operator="out"/>
<feColorMatrix type="matrix" values="0 0 0 0 0 0 0 0 0 0 0 0 0 0 0 0 0 0 0.25 0"/>
<feBlend mode="normal" in2="BackgroundImageFix" result="effect1_dropShadow_131_45"/>
<feBlend mode="normal" in="SourceGraphic" in2="effect1_dropShadow_131_45" result="shape"/>
</filter>
<linearGradient id="paint0_linear_131_45" x1="0" y1="147.292" x2="3809.93" y2="147.292" gradientUnits="userSpaceOnUse">
<stop stop-color="#FF6C00"/>
<stop offset="1" stop-color="#C45300"/>
</linearGradient>
<linearGradient id="paint1_linear_131_45" x1="0" y1="147.292" x2="3809.93" y2="147.292" gradientUnits="userSpaceOnUse">
<stop stop-color="#FF6C00"/>
<stop offset="1" stop-color="#C45300"/>
</linearGradient>
<linearGradient id="paint2_linear_131_45" x1="0" y1="147.292" x2="3809.93" y2="147.292" gradientUnits="userSpaceOnUse">
<stop stop-color="#FF6C00"/>
<stop offset="1" stop-color="#C45300"/>
</linearGradient>
<linearGradient id="paint3_linear_131_45" x1="0" y1="147.292" x2="3809.93" y2="147.292" gradientUnits="userSpaceOnUse">
<stop stop-color="#FF6C00"/>
<stop offset="1" stop-color="#C45300"/>
</linearGradient>
<linearGradient id="paint4_linear_131_45" x1="0" y1="147.292" x2="3809.93" y2="147.292" gradientUnits="userSpaceOnUse">
<stop stop-color="#FF6C00"/>
<stop offset="1" stop-color="#C45300"/>
</linearGradient>
<linearGradient id="paint5_linear_131_45" x1="0" y1="147.292" x2="3809.93" y2="147.292" gradientUnits="userSpaceOnUse">
<stop stop-color="#FF6C00"/>
<stop offset="1" stop-color="#C45300"/>
</linearGradient>
<linearGradient id="paint6_linear_131_45" x1="0" y1="147.292" x2="3809.93" y2="147.292" gradientUnits="userSpaceOnUse">
<stop stop-color="#FF6C00"/>
<stop offset="1" stop-color="#C45300"/>
</linearGradient>
<linearGradient id="paint7_linear_131_45" x1="0" y1="147.292" x2="3809.93" y2="147.292" gradientUnits="userSpaceOnUse">
<stop stop-color="#FF6C00"/>
<stop offset="1" stop-color="#C45300"/>
</linearGradient>
<linearGradient id="paint8_linear_131_45" x1="0" y1="147.292" x2="3809.93" y2="147.292" gradientUnits="userSpaceOnUse">
<stop stop-color="#FF6C00"/>
<stop offset="1" stop-color="#C45300"/>
</linearGradient>
<linearGradient id="paint9_linear_131_45" x1="0" y1="147.292" x2="3809.93" y2="147.292" gradientUnits="userSpaceOnUse">
<stop stop-color="#FF6C00"/>
<stop offset="1" stop-color="#C45300"/>
</linearGradient>
<linearGradient id="paint10_linear_131_45" x1="0" y1="147.292" x2="3809.93" y2="147.292" gradientUnits="userSpaceOnUse">
<stop stop-color="#FF6C00"/>
<stop offset="1" stop-color="#C45300"/>
</linearGradient>
<linearGradient id="paint11_linear_131_45" x1="0" y1="147.292" x2="3809.93" y2="147.292" gradientUnits="userSpaceOnUse">
<stop stop-color="#FF6C00"/>
<stop offset="1" stop-color="#C45300"/>
</linearGradient>
<linearGradient id="paint12_linear_131_45" x1="0" y1="147.292" x2="3809.93" y2="147.292" gradientUnits="userSpaceOnUse">
<stop stop-color="#FF6C00"/>
<stop offset="1" stop-color="#C45300"/>
</linearGradient>
<linearGradient id="paint13_linear_131_45" x1="0" y1="147.292" x2="3809.93" y2="147.292" gradientUnits="userSpaceOnUse">
<stop stop-color="#FF6C00"/>
<stop offset="1" stop-color="#C45300"/>
</linearGradient>
<linearGradient id="paint14_linear_131_45" x1="0" y1="147.292" x2="3809.93" y2="147.292" gradientUnits="userSpaceOnUse">
<stop stop-color="#FF6C00"/>
<stop offset="1" stop-color="#C45300"/>
</linearGradient>
<linearGradient id="paint15_linear_131_45" x1="0" y1="147.292" x2="3809.93" y2="147.292" gradientUnits="userSpaceOnUse">
<stop stop-color="#FF6C00"/>
<stop offset="1" stop-color="#C45300"/>
</linearGradient>
<linearGradient id="paint16_linear_131_45" x1="0" y1="147.292" x2="3809.93" y2="147.292" gradientUnits="userSpaceOnUse">
<stop stop-color="#FF6C00"/>
<stop offset="1" stop-color="#C45300"/>
</linearGradient>
<linearGradient id="paint17_linear_131_45" x1="0" y1="147.292" x2="3809.93" y2="147.292" gradientUnits="userSpaceOnUse">
<stop stop-color="#FF6C00"/>
<stop offset="1" stop-color="#C45300"/>
</linearGradient>
<linearGradient id="paint18_linear_131_45" x1="0" y1="147.292" x2="3809.93" y2="147.292" gradientUnits="userSpaceOnUse">
<stop stop-color="#FF6C00"/>
<stop offset="1" stop-color="#C45300"/>
</linearGradient>
<linearGradient id="paint19_linear_131_45" x1="0" y1="147.292" x2="3809.93" y2="147.292" gradientUnits="userSpaceOnUse">
<stop stop-color="#FF6C00"/>
<stop offset="1" stop-color="#C45300"/>
</linearGradient>
</defs>
</svg>
